<?xml version="1.0" encoding="UTF-8" standalone="no"?>
<!-- Generator: Adobe Illustrator 19.2.1, SVG Export Plug-In . SVG Version: 6.00 Build 0)  -->

<svg
   xmlns:dc="http://purl.org/dc/elements/1.1/"
   xmlns:cc="http://creativecommons.org/ns#"
   xmlns:rdf="http://www.w3.org/1999/02/22-rdf-syntax-ns#"
   xmlns:svg="http://www.w3.org/2000/svg"
   xmlns="http://www.w3.org/2000/svg"
   xmlns:sodipodi="http://sodipodi.sourceforge.net/DTD/sodipodi-0.dtd"
   xmlns:inkscape="http://www.inkscape.org/namespaces/inkscape"
   version="1.1"
   id="layer"
   x="0px"
   y="0px"
   viewBox="0 0 500 100"
   xml:space="preserve"
   inkscape:version="0.91 r13725"
   sodipodi:docname="logo.svg"
   width="500"
   height="100"><metadata
     id="metadata19"><rdf:RDF><cc:Work
         rdf:about=""><dc:format>image/svg+xml</dc:format><dc:type
           rdf:resource="http://purl.org/dc/dcmitype/StillImage" /><dc:title></dc:title></cc:Work></rdf:RDF></metadata><defs
     id="defs17" /><sodipodi:namedview
     pagecolor="#ffffff"
     bordercolor="#666666"
     borderopacity="1"
     objecttolerance="10"
     gridtolerance="10"
     guidetolerance="10"
     inkscape:pageopacity="0"
     inkscape:pageshadow="2"
     inkscape:window-width="1920"
     inkscape:window-height="1017"
     id="namedview15"
     showgrid="false"
     inkscape:zoom="1.0237865"
     inkscape:cx="-34.924995"
     inkscape:cy="-32.625612"
     inkscape:window-x="-8"
     inkscape:window-y="-8"
     inkscape:window-maximized="1"
     inkscape:current-layer="layer" /><style
     type="text/css"
     id="style3">
	.st0{fill:#878A8F;}
	.st1{fill:#ED1C27;}
	.st2{fill:#005791;}
</style><g
     id="g5"
     transform="matrix(0.32905809,0,0,0.32084085,14.260352,-54.672578)"><g
       id="g7"><path
         class="st0"
         d="m 626.8,308.5 c 0,2 -6.7,0.9 -16.6,4.1 -15.6,5.1 -20.3,9.1 -20.5,12.5 -0.5,8.7 19.9,25.7 14.6,49.9 -3.2,14.8 -35.7,38 -92.1,48.2 -43.8,8 -84,15.7 -98.7,32.5 0,0 14.3,-26.3 63.6,-37.2 59,-13.1 103.5,-34 105.8,-53.8 2.1,-18 -7.7,-26.1 -8.1,-36.6 -0.2,-4.4 4.5,-10.1 9.8,-12.8 7.4,-3.5 25,-9.2 42.2,-6.8"
         id="path9"
         inkscape:connector-curvature="0"
         style="fill:#878a8f" /><path
         class="st1"
         d="m 565.4,282.9 c 0,0 2.2,-3.5 1.8,-10.5 -0.5,-8.4 -8.5,-18.2 -32.1,-22.5 -30.9,-5.6 -70.5,-16.1 -91.8,-51.2 0,0 21.4,22.9 66.4,29.5 46.7,6.8 60.3,12 67.3,22.3 8,11.7 3.9,26 1.7,29.6 0,0 9.1,-2 19.6,2.1 8.3,3.3 12.9,11.5 13.3,16.9 0.2,2.3 0.5,2.3 0.5,2.3 0,0 -0.1,0.7 -5,-3.6 -6.2,-5.5 -18.9,-7.9 -34.4,-5 -15.1,2.9 -22.3,8.2 -36,12.2 -17.8,5.1 -34.4,6 -34.4,6 0,0 19.8,-6.1 36.2,-16.4 16.7,-10.4 26.9,-11.7 26.9,-11.7"
         id="path11"
         inkscape:connector-curvature="0"
         style="fill:#ed1c27" /><path
         class="st2"
         d="m 173.7,354.9 -16.9,61 38.6,0 12.5,-46.5 c 6.6,2.4 13.2,4.5 19.8,6.5 l -27.6,40 41.8,0 20.7,-31.3 c 16.8,3.4 33.4,5.7 49.4,7.1 l 3.3,24.1 40.4,0 -3.5,-22.4 c 6.8,0 13.4,-0.2 19.7,-0.5 l -6.2,22.9 38.6,0 c 0,0 10.2,-22.8 40,-37.8 32.6,-16.4 42.9,-39.8 42.9,-39.8 -160.9,71.8 -313.5,16.7 -313.5,16.7 m 58.9,-77.5 -11.9,0 c 0,0 -19.8,-0.4 -34.3,9.2 -14.5,9.6 -20.4,17.9 -20.4,17.9 l -34.2,39.4 -20.8,-66.5 -2.2,0 c 0,0 -14.4,-0.4 -28.2,8 -11.5,7 -16.8,19.4 -16.8,19.4 l -37,111.1 39.2,0 25.7,-69.3 20.4,78.1 61.7,-69.8 c 0,0 13.3,3.8 36.1,7.4 l 22.7,-84.9 z m 193.4,57.1 6.3,-23.6 c 0,0 35.9,3.9 65,0.4 2.4,-8.9 9.3,-34 9.3,-34 l -67.3,0 c 0,0 -16.5,0.1 -26.9,7.1 -13.9,9.4 -16.6,19.5 -16.6,19.5 l -15.1,56 c 13.4,-2.5 27.1,-5.6 41,-9.5 l 4.3,-15.9 z m -148.2,26.6 25.9,-39.6 5.2,39.6 0.7,6.8 c 12.2,-0.5 25,-1.4 38.1,-3 l -13.7,-88.5 -6.4,0 c 0,0 -12.7,-1.7 -28.8,7.1 -10.6,5.7 -19.1,17.2 -19.1,17.2 l -44.8,64.9 c 11.5,1.2 24.4,2.1 38.4,2.5 l 4.5,-7 z"
         id="path13"
         inkscape:connector-curvature="0"
         style="fill:#005791" /></g></g><text
     xml:space="preserve"
     style="font-style:normal;font-weight:normal;font-size:62.17366028px;line-height:125%;font-family:sans-serif;letter-spacing:0px;word-spacing:0px;fill:#595756;fill-opacity:1;stroke:none;stroke-width:1px;stroke-linecap:butt;stroke-linejoin:miter;stroke-opacity:1"
     x="231.28172"
     y="78.135765"
     id="text4138"
     sodipodi:linespacing="125%"><tspan
       sodipodi:role="line"
       id="tspan4140"
       x="231.28172"
       y="78.135765">Projects</tspan></text>
</svg>